name C:\Users\antoi\Documents\MyRepositories\upper-imu-dc\Results\main_tracking\Case_70\ABD01_angularVelocities_bodyFrame.mot
datacolumns 4
datarows 94
range 2.81000000 3.74000000
endheader 
time	radius_imu_x	radius_imu_y	radius_imu_z	
          2.81000000	          0.07971380	         -0.16056575	          0.07058063	
          2.82000000	          0.07926842	         -0.16104760	          0.07120794	
          2.83000000	          0.07997488	         -0.16179804	          0.07464781	
          2.84000000	          0.08088206	         -0.16328598	          0.07887140	
          2.85000000	          0.08162606	         -0.16548843	          0.08321469	
          2.86000000	          0.08205068	         -0.16817203	          0.08738273	
          2.87000000	          0.08209328	         -0.17101209	          0.09119800	
          2.88000000	          0.08174358	         -0.17369755	          0.09451673	
          2.89000000	          0.08101996	         -0.17601134	          0.09720697	
          2.90000000	          0.07995533	         -0.17789185	          0.09914090	
          2.91000000	          0.07858580	         -0.17947052	          0.10019260	
          2.92000000	          0.07694206	         -0.18108991	          0.10023777	
          2.93000000	          0.07504267	         -0.18330451	          0.09915511	
          2.94000000	          0.07288982	         -0.18685893	          0.09682873	
          2.95000000	          0.07046616	         -0.19263199	          0.09315096	
          2.96000000	          0.06773227	         -0.20154128	          0.08802483	
          2.97000000	          0.06462444	         -0.21441593	          0.08136543	
          2.98000000	          0.06105326	         -0.23185730	          0.07310018	
          2.99000000	          0.05690401	         -0.25411872	          0.06316861	
          3.00000000	          0.05203990	         -0.28104075	          0.05152248	
          3.01000000	          0.04630919	         -0.31206774	          0.03812638	
          3.02000000	          0.03955627	         -0.34633918	          0.02295993	
          3.03000000	          0.03163554	         -0.38282527	          0.00602152	
          3.04000000	          0.02242670	         -0.42047483	         -0.01266782	
          3.05000000	          0.01184917	         -0.45835353	         -0.03306105	
          3.06000000	         -0.00012582	         -0.49575818	         -0.05508255	
          3.07000000	         -0.01346746	         -0.53229739	         -0.07862654	
          3.08000000	         -0.02808342	         -0.56792926	         -0.10355641	
          3.09000000	         -0.04382521	         -0.60294717	         -0.12970681	
          3.10000000	         -0.06050225	         -0.63790887	         -0.15688799	
          3.11000000	         -0.07790045	         -0.67351799	         -0.18488994	
          3.12000000	         -0.09580309	         -0.71047974	         -0.21348767	
          3.13000000	         -0.11401212	         -0.74935703	         -0.24244754	
          3.14000000	         -0.13236370	         -0.79045431	         -0.27153181	
          3.15000000	         -0.15073644	         -0.83375131	         -0.30050220	
          3.16000000	         -0.16905142	         -0.87889349	         -0.32912103	
          3.17000000	         -0.18726474	         -0.92523031	         -0.35715039	
          3.18000000	         -0.20535626	         -0.97188527	         -0.38435284	
          3.19000000	         -0.22331723	         -1.01784137	         -0.41049587	
          3.20000000	         -0.24113966	         -1.06202928	         -0.43535988	
          3.21000000	         -0.25881252	         -1.10341019	         -0.45875152	
          3.22000000	         -0.27632016	         -1.14104676	         -0.48051385	
          3.23000000	         -0.29364414	         -1.17415761	         -0.50053156	
          3.24000000	         -0.31078074	         -1.20216067	         -0.51875094	
          3.25000000	         -0.32775183	         -1.22469744	         -0.53518245	
          3.26000000	         -0.34460863	         -1.24163801	         -0.54989008	
          3.27000000	         -0.36143436	         -1.25306858	         -0.56297778	
          3.28000000	         -0.37833967	         -1.25926680	         -0.57457297	
          3.29000000	         -0.39545220	         -1.26067252	         -0.58481429	
          3.30000000	         -0.41289762	         -1.25785409	         -0.59383497	
          3.31000000	         -0.43078106	         -1.25147424	         -0.60175172	
          3.32000000	         -0.44917104	         -1.24225438	         -0.60865643	
          3.33000000	         -0.46809027	         -1.23093848	         -0.61461400	
          3.34000000	         -0.48751394	         -1.21825494	         -0.61966280	
          3.35000000	         -0.50737337	         -1.20487843	         -0.62381661	
          3.36000000	         -0.52756401	         -1.19139236	         -0.62706846	
          3.37000000	         -0.54795409	         -1.17825204	         -0.62939373	
          3.38000000	         -0.56839292	         -1.16575195	         -0.63075369	
          3.39000000	         -0.58871624	         -1.15400167	         -0.63109650	
          3.40000000	         -0.60875317	         -1.14291759	         -0.63035882	
          3.41000000	         -0.62834114	         -1.13223543	         -0.62847431	
          3.42000000	         -0.64733028	         -1.12156239	         -0.62541425	
          3.43000000	         -0.66556122	         -1.11041806	         -0.62118107	
          3.44000000	         -0.68284979	         -1.09821230	         -0.61568559	
          3.45000000	         -0.69905872	         -1.08441066	         -0.60897672	
          3.46000000	         -0.71420908	         -1.06854039	         -0.60124049	
          3.47000000	         -0.72841156	         -1.05022361	         -0.59268561	
          3.48000000	         -0.74160448	         -1.02916240	         -0.58340629	
          3.49000000	         -0.75367863	         -1.00522906	         -0.57350641	
          3.50000000	         -0.76444645	         -0.97854958	         -0.56324699	
          3.51000000	         -0.77381724	         -0.94912428	         -0.55245212	
          3.52000000	         -0.78199604	         -0.91732036	         -0.54135887	
          3.53000000	         -0.78918910	         -0.88384084	         -0.53064124	
          3.54000000	         -0.79550107	         -0.84920409	         -0.52034647	
          3.55000000	         -0.80091418	         -0.81395307	         -0.51035263	
          3.56000000	         -0.80531139	         -0.77877943	         -0.50068042	
          3.57000000	         -0.80881238	         -0.74431288	         -0.49134685	
          3.58000000	         -0.81159361	         -0.71123094	         -0.48243958	
          3.59000000	         -0.81361699	         -0.68025853	         -0.47402006	
          3.60000000	         -0.81492708	         -0.65178115	         -0.46601778	
          3.61000000	         -0.81560754	         -0.62612952	         -0.45834022	
          3.62000000	         -0.81569467	         -0.60355400	         -0.45095135	
          3.63000000	         -0.81525623	         -0.58402784	         -0.44385332	
          3.64000000	         -0.81437692	         -0.56742617	         -0.43705301	
          3.65000000	         -0.81314980	         -0.55349648	         -0.43057539	
          3.66000000	         -0.81168284	         -0.54190376	         -0.42446538	
          3.67000000	         -0.81010114	         -0.53229297	         -0.41877874	
          3.68000000	         -0.80854059	         -0.52433221	         -0.41357601	
          3.69000000	         -0.80714704	         -0.51774510	         -0.40891250	
          3.70000000	         -0.80607336	         -0.51233668	         -0.40483185	
          3.71000000	         -0.80547404	         -0.50800791	         -0.40136126	
          3.72000000	         -0.80549911	         -0.50475933	         -0.39850463	
          3.73000000	         -0.80628533	         -0.50268606	         -0.39623711	
          3.74000000	         -0.80794930	         -0.50196459	         -0.39450564	
